<svg xmlns="http://www.w3.org/2000/svg" width="512" height="512" viewBox="0 0 512 512" xml:space="preserve"><g fill="#bebebe"><path d="M303.73 173.41c-6.9 0-12.5-5.6-12.5-12.5v-46.54c0-9.65-7.85-17.5-17.5-17.5h-30.34c-6.9 0-12.5-5.6-12.5-12.5s5.6-12.5 12.5-12.5h30.34c23.43 0 42.5 19.07 42.5 42.5v46.54c0 6.9-5.6 12.5-12.5 12.5" data-original="#bebebe"/><path d="M303.73 177.75c-3.32 0-6.49-1.32-8.84-3.66l-29.15-29.15c-4.88-4.88-4.88-12.8 0-17.68s12.8-4.88 17.68 0l20.31 20.31 20.31-20.31c4.88-4.88 12.8-4.88 17.68 0s4.88 12.8 0 17.68l-29.15 29.15a12.5 12.5 0 0 1-8.84 3.66" data-original="#bebebe"/></g><g fill="#bebebe"><path d="M416.34 345.04c-6.9 0-12.5-5.6-12.5-12.5V286c0-9.65-7.85-17.5-17.5-17.5H356c-6.9 0-12.5-5.6-12.5-12.5s5.6-12.5 12.5-12.5h30.34c23.43 0 42.5 19.07 42.5 42.5v46.54c0 6.9-5.6 12.5-12.5 12.5" data-original="#bebebe"/><path d="M416.34 349.38c-3.31 0-6.49-1.32-8.84-3.66l-29.15-29.15c-4.88-4.88-4.88-12.8 0-17.68s12.8-4.88 17.68 0l20.31 20.31 20.31-20.31c4.88-4.88 12.8-4.88 17.68 0s4.88 12.8 0 17.68l-29.15 29.15a12.5 12.5 0 0 1-8.84 3.66" data-original="#bebebe"/></g><rect width="213.39" height="108.72" x="30" y="30" fill="#9dd5f4" rx="30" data-original="#9dd5f4"/><path fill="#76bedd" d="M213.39 151.22H60c-23.43 0-42.5-19.07-42.5-42.5V60c0-23.43 19.07-42.5 42.5-42.5h153.39c23.43 0 42.5 19.07 42.5 42.5v48.72c0 23.43-19.07 42.5-42.5 42.5M60 42.5c-9.65 0-17.5 7.85-17.5 17.5v48.72c0 9.65 7.85 17.5 17.5 17.5h153.39c9.65 0 17.5-7.85 17.5-17.5V60c0-9.65-7.85-17.5-17.5-17.5z" data-original="#76bedd"/><rect width="213.39" height="108.72" x="142.61" y="201.64" fill="#339be2" rx="30" data-original="#339be2"/><path fill="#0068c0" d="M326 322.86H172.61c-23.43 0-42.5-19.07-42.5-42.5v-48.72c0-23.43 19.07-42.5 42.5-42.5H326c23.43 0 42.5 19.07 42.5 42.5v48.72c0 23.43-19.07 42.5-42.5 42.5M172.61 214.14c-9.65 0-17.5 7.85-17.5 17.5v48.72c0 9.65 7.85 17.5 17.5 17.5H326c9.65 0 17.5-7.85 17.5-17.5v-48.72c0-9.65-7.85-17.5-17.5-17.5z" data-original="#0068c0"/><rect width="213.39" height="108.72" x="268.61" y="373.28" fill="#0068c0" rx="30" data-original="#0068c0"/><path fill="#144276" d="M452 494.5H298.61c-23.43 0-42.5-19.07-42.5-42.5v-48.72c0-23.43 19.07-42.5 42.5-42.5H452c23.43 0 42.5 19.07 42.5 42.5V452c0 23.43-19.07 42.5-42.5 42.5M298.61 385.78c-9.65 0-17.5 7.85-17.5 17.5V452c0 9.65 7.85 17.5 17.5 17.5H452c9.65 0 17.5-7.85 17.5-17.5v-48.72c0-9.65-7.85-17.5-17.5-17.5z" data-original="#144276"/><path fill="#76bedd" d="M175.84 96.86H97.55c-6.9 0-12.5-5.6-12.5-12.5s5.6-12.5 12.5-12.5h78.28c6.9 0 12.5 5.6 12.5 12.5s-5.6 12.5-12.5 12.5z" data-original="#76bedd"/><path fill="#0068c0" d="M288.45 268.5h-78.28c-6.9 0-12.5-5.6-12.5-12.5s5.6-12.5 12.5-12.5h78.28c6.9 0 12.5 5.6 12.5 12.5s-5.6 12.5-12.5 12.5" data-original="#0068c0"/><path fill="#144276" d="M414.45 440.14h-78.28c-6.9 0-12.5-5.6-12.5-12.5s5.6-12.5 12.5-12.5h78.28c6.9 0 12.5 5.6 12.5 12.5s-5.6 12.5-12.5 12.5" data-original="#144276"/></svg>